<svg xmlns="http://www.w3.org/2000/svg" width="1005" height="600"><rect width="1005" height="600" x="0" y="0" fill="#FFFFFF" id="background"/><g transform="translate(50,10)" id="viz"><g id="axis"><g transform="translate(0,540)" fill="none" font-size="10" font-family="sans-serif" text-anchor="middle"><path class="domain" stroke="currentColor" d="M0,6V0H705V6"/><g class="tick" opacity="1" transform="translate(0,0)"><line stroke="currentColor" y2="6"/><text fill="currentColor" y="9" dy="0.71em">1995</text></g><g class="tick" opacity="1" transform="translate(64.04305624688901,0)"><line stroke="currentColor" y2="6"/><text fill="currentColor" y="9" dy="0.71em">1996</text></g><g class="tick" opacity="1" transform="translate(128.26157292185167,0)"><line stroke="currentColor" y2="6"/><text fill="currentColor" y="9" dy="0.71em">1997</text></g><g class="tick" opacity="1" transform="translate(192.30462916874066,0)"><line stroke="currentColor" y2="6"/><text fill="currentColor" y="9" dy="0.71em">1998</text></g><g class="tick" opacity="1" transform="translate(256.34768541562966,0)"><line stroke="currentColor" y2="6"/><text fill="currentColor" y="9" dy="0.71em">1999</text></g><g class="tick" opacity="1" transform="translate(320.3907416625187,0)"><line stroke="currentColor" y2="6"/><text fill="currentColor" y="9" dy="0.71em">2000</text></g><g class="tick" opacity="1" transform="translate(384.6092583374813,0)"><line stroke="currentColor" y2="6"/><text fill="currentColor" y="9" dy="0.71em">2001</text></g><g class="tick" opacity="1" transform="translate(448.65231458437034,0)"><line stroke="currentColor" y2="6"/><text fill="currentColor" y="9" dy="0.71em">2002</text></g><g class="tick" opacity="1" transform="translate(512.6953708312593,0)"><line stroke="currentColor" y2="6"/><text fill="currentColor" y="9" dy="0.71em">2003</text></g><g class="tick" opacity="1" transform="translate(576.7384270781483,0)"><line stroke="currentColor" y2="6"/><text fill="currentColor" y="9" dy="0.71em">2004</text></g><g class="tick" opacity="1" transform="translate(640.956943753111,0)"><line stroke="currentColor" y2="6"/><text fill="currentColor" y="9" dy="0.71em">2005</text></g><g class="tick" opacity="1" transform="translate(705,0)"><line stroke="currentColor" y2="6"/><text fill="currentColor" y="9" dy="0.71em">2006</text></g><text x="705" dy="-5" text-anchor="end" style="font-family: Arial, sans-serif; font-size: 12px; fill: rgb(123, 123, 123); font-weight: bold;">fnac</text></g><g fill="none" font-size="10" font-family="sans-serif" text-anchor="end"><path class="domain" stroke="currentColor" d="M0,0V540"/><g class="tick" opacity="1" transform="translate(0,68)"><line stroke="currentColor" x2="705" style="stroke: rgb(204, 204, 204);"/><text fill="currentColor" x="-3" dy="0.32em">A22</text></g><g class="tick" opacity="1" transform="translate(0,203)"><line stroke="currentColor" x2="705" style="stroke: rgb(204, 204, 204);"/><text fill="currentColor" x="-3" dy="0.32em">IN23</text></g><g class="tick" opacity="1" transform="translate(0,338)"><line stroke="currentColor" x2="705" style="stroke: rgb(204, 204, 204);"/><text fill="currentColor" x="-3" dy="0.32em">L20</text></g><g class="tick" opacity="1" transform="translate(0,473)"><line stroke="currentColor" x2="705" style="stroke: rgb(204, 204, 204);"/><text fill="currentColor" x="-3" dy="0.32em">S10-Rev23</text></g><text x="4" text-anchor="start" dominant-baseline="hanging" style="font-family: Arial, sans-serif; font-size: 12px; fill: rgb(123, 123, 123); font-weight: bold;">plan</text></g></g><g id="visualization"><g id="A22"><g id="circles"><circle id="M" cx="551.1212045793927" cy="67.5" r="5.25" style="fill: rgb(31, 119, 180);"/><circle id="M" cx="574.281981085117" cy="67.5" r="5.25" style="fill: rgb(31, 119, 180);"/><circle id="F" cx="620.6035340965655" cy="67.5" r="5.25" style="fill: rgb(31, 119, 180);"/><circle id="F" cx="245.4691388750622" cy="67.5" r="5.25" style="fill: rgb(31, 119, 180);"/><circle id="F" cx="654.3130910900946" cy="67.5" r="5.25" style="fill: rgb(31, 119, 180);"/><circle id="M" cx="641.8130910900945" cy="67.5" r="5.25" style="fill: rgb(255, 127, 14);"/></g><g id="labels"><g id="M" transform="translate(551.1212045793927,67.5)"><text x="0" y="0" text-anchor="middle" dominant-baseline="text-before-edge" transform="translate(0,-5.6666669845581055)"><tspan x="0" y="0" dy="0" style="font-family: Arial, sans-serif; font-size: 10px; fill: black; font-weight: bold;">M</tspan></text></g><g id="M" transform="translate(574.281981085117,67.5)"><text x="0" y="0" text-anchor="middle" dominant-baseline="text-before-edge" transform="translate(0,-5.6666669845581055)"><tspan x="0" y="0" dy="0" style="font-family: Arial, sans-serif; font-size: 10px; fill: black; font-weight: bold;">M</tspan></text></g><g id="F" transform="translate(620.6035340965655,67.5)"><text x="0" y="0" text-anchor="middle" dominant-baseline="text-before-edge" transform="translate(0,-5.6666669845581055)"><tspan x="0" y="0" dy="0" style="font-family: Arial, sans-serif; font-size: 10px; fill: black; font-weight: bold;">F</tspan></text></g><g id="F" transform="translate(245.4691388750622,67.5)"><text x="0" y="0" text-anchor="middle" dominant-baseline="text-before-edge" transform="translate(0,-5.6666669845581055)"><tspan x="0" y="0" dy="0" style="font-family: Arial, sans-serif; font-size: 10px; fill: black; font-weight: bold;">F</tspan></text></g><g id="F" transform="translate(654.3130910900946,67.5)"><text x="0" y="0" text-anchor="middle" dominant-baseline="text-before-edge" transform="translate(0,-5.6666669845581055)"><tspan x="0" y="0" dy="0" style="font-family: Arial, sans-serif; font-size: 10px; fill: black; font-weight: bold;">F</tspan></text></g><g id="M" transform="translate(641.8130910900945,67.5)"><text x="0" y="0" text-anchor="middle" dominant-baseline="text-before-edge" transform="translate(0,-5.6666669845581055)"><tspan x="0" y="0" dy="0" style="font-family: Arial, sans-serif; font-size: 10px; fill: black; font-weight: bold;">M</tspan></text></g></g></g><g id="IN23"><g id="circles"><circle id="M" cx="452.16152314584366" cy="202.5" r="5.25" style="fill: rgb(214, 39, 40);"/><circle id="M" cx="490.9594325535092" cy="202.5" r="5.25" style="fill: rgb(214, 39, 40);"/><circle id="M" cx="478.4594325535092" cy="202.5" r="5.25" style="fill: rgb(44, 160, 44);"/><circle id="F" cx="464.7946739671478" cy="202.5" r="5.25" style="fill: rgb(44, 160, 44);"/></g><g id="labels"><g id="M" transform="translate(452.16152314584366,202.5)"><text x="0" y="0" text-anchor="middle" dominant-baseline="text-before-edge" transform="translate(0,-5.6666669845581055)"><tspan x="0" y="0" dy="0" style="font-family: Arial, sans-serif; font-size: 10px; fill: black; font-weight: bold;">M</tspan></text></g><g id="M" transform="translate(490.9594325535092,202.5)"><text x="0" y="0" text-anchor="middle" dominant-baseline="text-before-edge" transform="translate(0,-5.6666669845581055)"><tspan x="0" y="0" dy="0" style="font-family: Arial, sans-serif; font-size: 10px; fill: black; font-weight: bold;">M</tspan></text></g><g id="M" transform="translate(478.4594325535092,202.5)"><text x="0" y="0" text-anchor="middle" dominant-baseline="text-before-edge" transform="translate(0,-5.6666669845581055)"><tspan x="0" y="0" dy="0" style="font-family: Arial, sans-serif; font-size: 10px; fill: black; font-weight: bold;">M</tspan></text></g><g id="F" transform="translate(464.7946739671478,202.5)"><text x="0" y="0" text-anchor="middle" dominant-baseline="text-before-edge" transform="translate(0,-5.6666669845581055)"><tspan x="0" y="0" dy="0" style="font-family: Arial, sans-serif; font-size: 10px; fill: black; font-weight: bold;">F</tspan></text></g></g></g><g id="L20"><g id="circles"><circle id="M" cx="454.6179691388751" cy="337.5" r="5.25" style="fill: rgb(31, 119, 180);"/><circle id="M" cx="590.4454952712792" cy="337.5" r="5.25" style="fill: rgb(31, 119, 180);"/><circle id="M" cx="564.2807366849179" cy="337.5" r="5.25" style="fill: rgb(31, 119, 180);"/><circle id="M" cx="577.9454952712792" cy="337.5" r="5.25" style="fill: rgb(31, 119, 180);"/><circle id="M" cx="548.6647585863614" cy="337.5" r="5.25" style="fill: rgb(31, 119, 180);"/><circle id="M" cx="254.593081134893" cy="337.5" r="5.25" style="fill: rgb(31, 119, 180);"/><circle id="M" cx="426.54430064708805" cy="337.5" r="5.25" style="fill: rgb(31, 119, 180);"/><circle id="F" cx="371.27426580388254" cy="337.5" r="5.25" style="fill: rgb(31, 119, 180);"/></g><g id="labels"><g id="M" transform="translate(454.6179691388751,337.5)"><text x="0" y="0" text-anchor="middle" dominant-baseline="text-before-edge" transform="translate(0,-5.6666669845581055)"><tspan x="0" y="0" dy="0" style="font-family: Arial, sans-serif; font-size: 10px; fill: black; font-weight: bold;">M</tspan></text></g><g id="M" transform="translate(590.4454952712792,337.5)"><text x="0" y="0" text-anchor="middle" dominant-baseline="text-before-edge" transform="translate(0,-5.6666669845581055)"><tspan x="0" y="0" dy="0" style="font-family: Arial, sans-serif; font-size: 10px; fill: black; font-weight: bold;">M</tspan></text></g><g id="M" transform="translate(564.2807366849179,337.5)"><text x="0" y="0" text-anchor="middle" dominant-baseline="text-before-edge" transform="translate(0,-5.6666669845581055)"><tspan x="0" y="0" dy="0" style="font-family: Arial, sans-serif; font-size: 10px; fill: black; font-weight: bold;">M</tspan></text></g><g id="M" transform="translate(577.9454952712792,337.5)"><text x="0" y="0" text-anchor="middle" dominant-baseline="text-before-edge" transform="translate(0,-5.6666669845581055)"><tspan x="0" y="0" dy="0" style="font-family: Arial, sans-serif; font-size: 10px; fill: black; font-weight: bold;">M</tspan></text></g><g id="M" transform="translate(548.6647585863614,337.5)"><text x="0" y="0" text-anchor="middle" dominant-baseline="text-before-edge" transform="translate(0,-5.6666669845581055)"><tspan x="0" y="0" dy="0" style="font-family: Arial, sans-serif; font-size: 10px; fill: black; font-weight: bold;">M</tspan></text></g><g id="M" transform="translate(254.593081134893,337.5)"><text x="0" y="0" text-anchor="middle" dominant-baseline="text-before-edge" transform="translate(0,-5.6666669845581055)"><tspan x="0" y="0" dy="0" style="font-family: Arial, sans-serif; font-size: 10px; fill: black; font-weight: bold;">M</tspan></text></g><g id="M" transform="translate(426.54430064708805,337.5)"><text x="0" y="0" text-anchor="middle" dominant-baseline="text-before-edge" transform="translate(0,-5.6666669845581055)"><tspan x="0" y="0" dy="0" style="font-family: Arial, sans-serif; font-size: 10px; fill: black; font-weight: bold;">M</tspan></text></g><g id="F" transform="translate(371.27426580388254,337.5)"><text x="0" y="0" text-anchor="middle" dominant-baseline="text-before-edge" transform="translate(0,-5.6666669845581055)"><tspan x="0" y="0" dy="0" style="font-family: Arial, sans-serif; font-size: 10px; fill: black; font-weight: bold;">F</tspan></text></g></g></g><g id="S10-Rev23"><g id="circles"><circle id="M" cx="465.14559482329514" cy="472.5" r="5.25" style="fill: rgb(31, 119, 180);"/><circle id="M" cx="304.26785858653676" cy="479.6097573231193" r="5.25" style="fill: rgb(31, 119, 180);"/><circle id="M" cx="58.428322548531604" cy="472.5" r="5.25" style="fill: rgb(31, 119, 180);"/><circle id="M" cx="329.04341304071966" cy="476.27218186295244" r="5.25" style="fill: rgb(31, 119, 180);"/><circle id="M" cx="321.4049613981728" cy="466.37760597592796" r="5.25" style="fill: rgb(31, 119, 180);"/><circle id="M" cx="309.0168508074016" cy="468.0464655032771" r="5.25" style="fill: rgb(31, 119, 180);"/><circle id="M" cx="316.6555918437869" cy="477.9406757930777" r="5.25" style="fill: rgb(31, 119, 180);"/><circle id="M" cx="402.68168242906916" cy="472.5" r="5.25" style="fill: rgb(31, 119, 180);"/><circle id="M" cx="296.6288916374264" cy="469.715546578836" r="5.25" style="fill: rgb(31, 119, 180);"/><circle id="M" cx="339.57402054061026" cy="469.53776696281005" r="5.25" style="fill: rgb(31, 119, 180);"/></g><g id="labels"><g id="M" transform="translate(465.14559482329514,472.5)"><text x="0" y="0" text-anchor="middle" dominant-baseline="text-before-edge" transform="translate(0,-5.6666669845581055)"><tspan x="0" y="0" dy="0" style="font-family: Arial, sans-serif; font-size: 10px; fill: black; font-weight: bold;">M</tspan></text></g><g id="M" transform="translate(304.26785858653676,479.6097573231193)"><text x="0" y="0" text-anchor="middle" dominant-baseline="text-before-edge" transform="translate(0,-5.6666669845581055)"><tspan x="0" y="0" dy="0" style="font-family: Arial, sans-serif; font-size: 10px; fill: black; font-weight: bold;">M</tspan></text></g><g id="M" transform="translate(58.428322548531604,472.5)"><text x="0" y="0" text-anchor="middle" dominant-baseline="text-before-edge" transform="translate(0,-5.6666669845581055)"><tspan x="0" y="0" dy="0" style="font-family: Arial, sans-serif; font-size: 10px; fill: black; font-weight: bold;">M</tspan></text></g><g id="M" transform="translate(329.04341304071966,476.27218186295244)"><text x="0" y="0" text-anchor="middle" dominant-baseline="text-before-edge" transform="translate(0,-5.6666669845581055)"><tspan x="0" y="0" dy="0" style="font-family: Arial, sans-serif; font-size: 10px; fill: black; font-weight: bold;">M</tspan></text></g><g id="M" transform="translate(321.4049613981728,466.37760597592796)"><text x="0" y="0" text-anchor="middle" dominant-baseline="text-before-edge" transform="translate(0,-5.6666669845581055)"><tspan x="0" y="0" dy="0" style="font-family: Arial, sans-serif; font-size: 10px; fill: black; font-weight: bold;">M</tspan></text></g><g id="M" transform="translate(309.0168508074016,468.0464655032771)"><text x="0" y="0" text-anchor="middle" dominant-baseline="text-before-edge" transform="translate(0,-5.6666669845581055)"><tspan x="0" y="0" dy="0" style="font-family: Arial, sans-serif; font-size: 10px; fill: black; font-weight: bold;">M</tspan></text></g><g id="M" transform="translate(316.6555918437869,477.9406757930777)"><text x="0" y="0" text-anchor="middle" dominant-baseline="text-before-edge" transform="translate(0,-5.6666669845581055)"><tspan x="0" y="0" dy="0" style="font-family: Arial, sans-serif; font-size: 10px; fill: black; font-weight: bold;">M</tspan></text></g><g id="M" transform="translate(402.68168242906916,472.5)"><text x="0" y="0" text-anchor="middle" dominant-baseline="text-before-edge" transform="translate(0,-5.6666669845581055)"><tspan x="0" y="0" dy="0" style="font-family: Arial, sans-serif; font-size: 10px; fill: black; font-weight: bold;">M</tspan></text></g><g id="M" transform="translate(296.6288916374264,469.715546578836)"><text x="0" y="0" text-anchor="middle" dominant-baseline="text-before-edge" transform="translate(0,-5.6666669845581055)"><tspan x="0" y="0" dy="0" style="font-family: Arial, sans-serif; font-size: 10px; fill: black; font-weight: bold;">M</tspan></text></g><g id="M" transform="translate(339.57402054061026,469.53776696281005)"><text x="0" y="0" text-anchor="middle" dominant-baseline="text-before-edge" transform="translate(0,-5.6666669845581055)"><tspan x="0" y="0" dy="0" style="font-family: Arial, sans-serif; font-size: 10px; fill: black; font-weight: bold;">M</tspan></text></g></g></g></g></g><g id="legend" transform="translate(805,10)"><g transform="translate(5,0)"><g class="legendSize" transform="translate(0,0)"><g class="legendCells" transform="translate(5.25,16)"><g class="cell" transform="translate(0, 5.25)"><circle class="swatch" r="5.25" fill="none" stroke="#ccc"/><text class="label" transform="translate( 10.25,&#10;          5)" font-family="&quot;Arial&quot;, sans-serif" font-size="10px"><tspan x="0" dy="0em">1.0</tspan></text></g><g class="cell" transform="translate(0, 31.25)"><circle class="swatch" r="5.25" fill="none" stroke="#ccc"/><text class="label" transform="translate( 10.25,&#10;          5)" font-family="&quot;Arial&quot;, sans-serif" font-size="10px"><tspan x="0" dy="0em">1.0</tspan></text></g></g><text class="legendTitle" font-family="&quot;Arial&quot;, sans-serif" font-size="12px" font-weight="bold"><tspan x="0" dy="0em">Number of records</tspan></text></g><g class="legendColor" transform="translate(0,88.25)"><g class="legendCells" transform="translate(0,16)"><g class="cell" transform="translate(0, 0)"><rect class="swatch" height="15" width="15" style="fill: rgb(31, 119, 180);"/><text class="label" transform="translate( 20, 12.5)" font-family="&quot;Arial&quot;, sans-serif" font-size="10px"><tspan x="0" dy="0em">Argentina</tspan></text></g><g class="cell" transform="translate(0, 21)"><rect class="swatch" height="15" width="15" style="fill: rgb(255, 127, 14);"/><text class="label" transform="translate( 20, 12.5)" font-family="&quot;Arial&quot;, sans-serif" font-size="10px"><tspan x="0" dy="0em">Estados Unidos</tspan></text></g><g class="cell" transform="translate(0, 42)"><rect class="swatch" height="15" width="15" style="fill: rgb(44, 160, 44);"/><text class="label" transform="translate( 20, 12.5)" font-family="&quot;Arial&quot;, sans-serif" font-size="10px"><tspan x="0" dy="0em">Francia</tspan></text></g><g class="cell" transform="translate(0, 63)"><rect class="swatch" height="15" width="15" style="fill: rgb(214, 39, 40);"/><text class="label" transform="translate( 20, 12.5)" font-family="&quot;Arial&quot;, sans-serif" font-size="10px"><tspan x="0" dy="0em">Portugal</tspan></text></g></g><text class="legendTitle" font-family="&quot;Arial&quot;, sans-serif" font-size="12px" font-weight="bold"><tspan x="0" dy="0em">nacionalidad</tspan></text></g></g></g></svg>