<svg xmlns="http://www.w3.org/2000/svg" width="805" height="600"><rect width="805" height="600" x="0" y="0" fill="#FFFFFF" id="background"/><g transform="translate(50,10)" id="viz"><g id="axis"><g transform="translate(0,540)" fill="none" font-size="10" font-family="sans-serif" text-anchor="middle"><path class="domain" stroke="currentColor" d="M0,6V0H705V6"/><g class="tick" opacity="1" transform="translate(0,0)"><line stroke="currentColor" y2="6"/><text fill="currentColor" y="9" dy="0.71em">1995</text></g><g class="tick" opacity="1" transform="translate(64.04305624688901,0)"><line stroke="currentColor" y2="6"/><text fill="currentColor" y="9" dy="0.71em">1996</text></g><g class="tick" opacity="1" transform="translate(128.26157292185167,0)"><line stroke="currentColor" y2="6"/><text fill="currentColor" y="9" dy="0.71em">1997</text></g><g class="tick" opacity="1" transform="translate(192.30462916874066,0)"><line stroke="currentColor" y2="6"/><text fill="currentColor" y="9" dy="0.71em">1998</text></g><g class="tick" opacity="1" transform="translate(256.34768541562966,0)"><line stroke="currentColor" y2="6"/><text fill="currentColor" y="9" dy="0.71em">1999</text></g><g class="tick" opacity="1" transform="translate(320.3907416625187,0)"><line stroke="currentColor" y2="6"/><text fill="currentColor" y="9" dy="0.71em">2000</text></g><g class="tick" opacity="1" transform="translate(384.6092583374813,0)"><line stroke="currentColor" y2="6"/><text fill="currentColor" y="9" dy="0.71em">2001</text></g><g class="tick" opacity="1" transform="translate(448.65231458437034,0)"><line stroke="currentColor" y2="6"/><text fill="currentColor" y="9" dy="0.71em">2002</text></g><g class="tick" opacity="1" transform="translate(512.6953708312593,0)"><line stroke="currentColor" y2="6"/><text fill="currentColor" y="9" dy="0.71em">2003</text></g><g class="tick" opacity="1" transform="translate(576.7384270781483,0)"><line stroke="currentColor" y2="6"/><text fill="currentColor" y="9" dy="0.71em">2004</text></g><g class="tick" opacity="1" transform="translate(640.956943753111,0)"><line stroke="currentColor" y2="6"/><text fill="currentColor" y="9" dy="0.71em">2005</text></g><g class="tick" opacity="1" transform="translate(705,0)"><line stroke="currentColor" y2="6"/><text fill="currentColor" y="9" dy="0.71em">2006</text></g><text x="705" dy="-5" text-anchor="end" style="font-family: Arial, sans-serif; font-size: 12px; fill: rgb(123, 123, 123); font-weight: bold;">fnac</text></g><g fill="none" font-size="10" font-family="sans-serif" text-anchor="end"><path class="domain" stroke="currentColor" d="M0,0V540"/><g class="tick" opacity="1" transform="translate(0,68)"><line stroke="currentColor" x2="705" style="stroke: rgb(204, 204, 204);"/><text fill="currentColor" x="-3" dy="0.32em">A22</text></g><g class="tick" opacity="1" transform="translate(0,203)"><line stroke="currentColor" x2="705" style="stroke: rgb(204, 204, 204);"/><text fill="currentColor" x="-3" dy="0.32em">IN23</text></g><g class="tick" opacity="1" transform="translate(0,338)"><line stroke="currentColor" x2="705" style="stroke: rgb(204, 204, 204);"/><text fill="currentColor" x="-3" dy="0.32em">L20</text></g><g class="tick" opacity="1" transform="translate(0,473)"><line stroke="currentColor" x2="705" style="stroke: rgb(204, 204, 204);"/><text fill="currentColor" x="-3" dy="0.32em">S10-Rev23</text></g><text x="4" text-anchor="start" dominant-baseline="hanging" style="font-family: Arial, sans-serif; font-size: 12px; fill: rgb(123, 123, 123); font-weight: bold;">plan</text></g></g><g id="visualization"><g id="A22"><g id="circles"><circle id="M" cx="551.1212045793927" cy="67.5" r="5.25" style="fill: rgb(31, 119, 180);"/><circle id="M" cx="574.281981085117" cy="67.5" r="5.25" style="fill: rgb(31, 119, 180);"/><circle id="F" cx="620.6035340965655" cy="67.5" r="5.25" style="fill: rgb(31, 119, 180);"/><circle id="F" cx="245.4691388750622" cy="67.5" r="5.25" style="fill: rgb(31, 119, 180);"/><circle id="F" cx="654.3130910900946" cy="67.5" r="5.25" style="fill: rgb(31, 119, 180);"/><circle id="M" cx="641.8130910900945" cy="67.5" r="5.25" style="fill: rgb(255, 127, 14);"/></g><g id="labels"><g id="M" transform="translate(551.1212045793927,67.5)"><text x="0" y="0" text-anchor="middle" dominant-baseline="text-before-edge" transform="translate(0,-5.6666669845581055)"><tspan x="0" y="0" dy="0" style="font-family: Arial, sans-serif; font-size: 10px; fill: black; font-weight: bold;">M</tspan></text></g><g id="M" transform="translate(574.281981085117,67.5)"><text x="0" y="0" text-anchor="middle" dominant-baseline="text-before-edge" transform="translate(0,-5.6666669845581055)"><tspan x="0" y="0" dy="0" style="font-family: Arial, sans-serif; font-size: 10px; fill: black; font-weight: bold;">M</tspan></text></g><g id="F" transform="translate(620.6035340965655,67.5)"><text x="0" y="0" text-anchor="middle" dominant-baseline="text-before-edge" transform="translate(0,-5.6666669845581055)"><tspan x="0" y="0" dy="0" style="font-family: Arial, sans-serif; font-size: 10px; fill: black; font-weight: bold;">F</tspan></text></g><g id="F" transform="translate(245.4691388750622,67.5)"><text x="0" y="0" text-anchor="middle" dominant-baseline="text-before-edge" transform="translate(0,-5.6666669845581055)"><tspan x="0" y="0" dy="0" style="font-family: Arial, sans-serif; font-size: 10px; fill: black; font-weight: bold;">F</tspan></text></g><g id="F" transform="translate(654.3130910900946,67.5)"><text x="0" y="0" text-anchor="middle" dominant-baseline="text-before-edge" transform="translate(0,-5.6666669845581055)"><tspan x="0" y="0" dy="0" style="font-family: Arial, sans-serif; font-size: 10px; fill: black; font-weight: bold;">F</tspan></text></g><g id="M" transform="translate(641.8130910900945,67.5)"><text x="0" y="0" text-anchor="middle" dominant-baseline="text-before-edge" transform="translate(0,-5.6666669845581055)"><tspan x="0" y="0" dy="0" style="font-family: Arial, sans-serif; font-size: 10px; fill: black; font-weight: bold;">M</tspan></text></g></g></g><g id="IN23"><g id="circles"><circle id="M" cx="452.16152314584366" cy="202.5" r="5.25" style="fill: rgb(214, 39, 40);"/><circle id="M" cx="490.9594325535092" cy="202.50000000000043" r="5.25" style="fill: rgb(214, 39, 40);"/><circle id="M" cx="478.4594325535092" cy="202.49999999999957" r="5.25" style="fill: rgb(44, 160, 44);"/><circle id="F" cx="464.7946739671478" cy="202.5" r="5.25" style="fill: rgb(44, 160, 44);"/></g><g id="labels"><g id="M" transform="translate(452.16152314584366,202.5)"><text x="0" y="0" text-anchor="middle" dominant-baseline="text-before-edge" transform="translate(0,-5.6666669845581055)"><tspan x="0" y="0" dy="0" style="font-family: Arial, sans-serif; font-size: 10px; fill: black; font-weight: bold;">M</tspan></text></g><g id="M" transform="translate(490.9594325535092,202.50000000000043)"><text x="0" y="0" text-anchor="middle" dominant-baseline="text-before-edge" transform="translate(0,-5.6666669845581055)"><tspan x="0" y="0" dy="0" style="font-family: Arial, sans-serif; font-size: 10px; fill: black; font-weight: bold;">M</tspan></text></g><g id="M" transform="translate(478.4594325535092,202.49999999999957)"><text x="0" y="0" text-anchor="middle" dominant-baseline="text-before-edge" transform="translate(0,-5.6666669845581055)"><tspan x="0" y="0" dy="0" style="font-family: Arial, sans-serif; font-size: 10px; fill: black; font-weight: bold;">M</tspan></text></g><g id="F" transform="translate(464.7946739671478,202.5)"><text x="0" y="0" text-anchor="middle" dominant-baseline="text-before-edge" transform="translate(0,-5.6666669845581055)"><tspan x="0" y="0" dy="0" style="font-family: Arial, sans-serif; font-size: 10px; fill: black; font-weight: bold;">F</tspan></text></g></g></g><g id="L20"><g id="circles"><circle id="M" cx="454.6179691388751" cy="337.5" r="5.25" style="fill: rgb(31, 119, 180);"/><circle id="M" cx="590.4454952712792" cy="337.50000000000074" r="5.25" style="fill: rgb(31, 119, 180);"/><circle id="M" cx="564.2807366849179" cy="337.5" r="5.25" style="fill: rgb(31, 119, 180);"/><circle id="M" cx="577.9454952712792" cy="337.49999999999926" r="5.25" style="fill: rgb(31, 119, 180);"/><circle id="M" cx="548.6647585863614" cy="337.5" r="5.25" style="fill: rgb(31, 119, 180);"/><circle id="M" cx="254.593081134893" cy="337.5" r="5.25" style="fill: rgb(31, 119, 180);"/><circle id="M" cx="426.54430064708805" cy="337.5" r="5.25" style="fill: rgb(31, 119, 180);"/><circle id="F" cx="371.27426580388254" cy="337.5" r="5.25" style="fill: rgb(31, 119, 180);"/></g><g id="labels"><g id="M" transform="translate(454.6179691388751,337.5)"><text x="0" y="0" text-anchor="middle" dominant-baseline="text-before-edge" transform="translate(0,-5.6666669845581055)"><tspan x="0" y="0" dy="0" style="font-family: Arial, sans-serif; font-size: 10px; fill: black; font-weight: bold;">M</tspan></text></g><g id="M" transform="translate(590.4454952712792,337.50000000000074)"><text x="0" y="0" text-anchor="middle" dominant-baseline="text-before-edge" transform="translate(0,-5.6666669845581055)"><tspan x="0" y="0" dy="0" style="font-family: Arial, sans-serif; font-size: 10px; fill: black; font-weight: bold;">M</tspan></text></g><g id="M" transform="translate(564.2807366849179,337.5)"><text x="0" y="0" text-anchor="middle" dominant-baseline="text-before-edge" transform="translate(0,-5.6666669845581055)"><tspan x="0" y="0" dy="0" style="font-family: Arial, sans-serif; font-size: 10px; fill: black; font-weight: bold;">M</tspan></text></g><g id="M" transform="translate(577.9454952712792,337.49999999999926)"><text x="0" y="0" text-anchor="middle" dominant-baseline="text-before-edge" transform="translate(0,-5.6666669845581055)"><tspan x="0" y="0" dy="0" style="font-family: Arial, sans-serif; font-size: 10px; fill: black; font-weight: bold;">M</tspan></text></g><g id="M" transform="translate(548.6647585863614,337.5)"><text x="0" y="0" text-anchor="middle" dominant-baseline="text-before-edge" transform="translate(0,-5.6666669845581055)"><tspan x="0" y="0" dy="0" style="font-family: Arial, sans-serif; font-size: 10px; fill: black; font-weight: bold;">M</tspan></text></g><g id="M" transform="translate(254.593081134893,337.5)"><text x="0" y="0" text-anchor="middle" dominant-baseline="text-before-edge" transform="translate(0,-5.6666669845581055)"><tspan x="0" y="0" dy="0" style="font-family: Arial, sans-serif; font-size: 10px; fill: black; font-weight: bold;">M</tspan></text></g><g id="M" transform="translate(426.54430064708805,337.5)"><text x="0" y="0" text-anchor="middle" dominant-baseline="text-before-edge" transform="translate(0,-5.6666669845581055)"><tspan x="0" y="0" dy="0" style="font-family: Arial, sans-serif; font-size: 10px; fill: black; font-weight: bold;">M</tspan></text></g><g id="F" transform="translate(371.27426580388254,337.5)"><text x="0" y="0" text-anchor="middle" dominant-baseline="text-before-edge" transform="translate(0,-5.6666669845581055)"><tspan x="0" y="0" dy="0" style="font-family: Arial, sans-serif; font-size: 10px; fill: black; font-weight: bold;">F</tspan></text></g></g></g><g id="S10-Rev23"><g id="circles"><circle id="M" cx="465.14559482329514" cy="472.5" r="5.25" style="fill: rgb(31, 119, 180);"/><circle id="M" cx="304.27099762370295" cy="479.61558565263255" r="5.25" style="fill: rgb(31, 119, 180);"/><circle id="M" cx="58.428322548531604" cy="472.5" r="5.25" style="fill: rgb(31, 119, 180);"/><circle id="M" cx="329.0440995157856" cy="476.2598666261428" r="5.25" style="fill: rgb(31, 119, 180);"/><circle id="M" cx="321.3984050926822" cy="466.37088747525644" r="5.25" style="fill: rgb(31, 119, 180);"/><circle id="M" cx="309.0115201337484" cy="468.0488187491277" r="5.25" style="fill: rgb(31, 119, 180);"/><circle id="M" cx="316.657504666553" cy="477.9374323968998" r="5.25" style="fill: rgb(31, 119, 180);"/><circle id="M" cx="402.68168242906916" cy="472.5" r="5.25" style="fill: rgb(31, 119, 180);"/><circle id="M" cx="296.62478678850164" cy="469.7269719710218" r="5.25" style="fill: rgb(31, 119, 180);"/><circle id="M" cx="339.5842740336797" cy="469.5404371289192" r="5.25" style="fill: rgb(31, 119, 180);"/></g><g id="labels"><g id="M" transform="translate(465.14559482329514,472.5)"><text x="0" y="0" text-anchor="middle" dominant-baseline="text-before-edge" transform="translate(0,-5.6666669845581055)"><tspan x="0" y="0" dy="0" style="font-family: Arial, sans-serif; font-size: 10px; fill: black; font-weight: bold;">M</tspan></text></g><g id="M" transform="translate(304.27099762370295,479.61558565263255)"><text x="0" y="0" text-anchor="middle" dominant-baseline="text-before-edge" transform="translate(0,-5.6666669845581055)"><tspan x="0" y="0" dy="0" style="font-family: Arial, sans-serif; font-size: 10px; fill: black; font-weight: bold;">M</tspan></text></g><g id="M" transform="translate(58.428322548531604,472.5)"><text x="0" y="0" text-anchor="middle" dominant-baseline="text-before-edge" transform="translate(0,-5.6666669845581055)"><tspan x="0" y="0" dy="0" style="font-family: Arial, sans-serif; font-size: 10px; fill: black; font-weight: bold;">M</tspan></text></g><g id="M" transform="translate(329.0440995157856,476.2598666261428)"><text x="0" y="0" text-anchor="middle" dominant-baseline="text-before-edge" transform="translate(0,-5.6666669845581055)"><tspan x="0" y="0" dy="0" style="font-family: Arial, sans-serif; font-size: 10px; fill: black; font-weight: bold;">M</tspan></text></g><g id="M" transform="translate(321.3984050926822,466.37088747525644)"><text x="0" y="0" text-anchor="middle" dominant-baseline="text-before-edge" transform="translate(0,-5.6666669845581055)"><tspan x="0" y="0" dy="0" style="font-family: Arial, sans-serif; font-size: 10px; fill: black; font-weight: bold;">M</tspan></text></g><g id="M" transform="translate(309.0115201337484,468.0488187491277)"><text x="0" y="0" text-anchor="middle" dominant-baseline="text-before-edge" transform="translate(0,-5.6666669845581055)"><tspan x="0" y="0" dy="0" style="font-family: Arial, sans-serif; font-size: 10px; fill: black; font-weight: bold;">M</tspan></text></g><g id="M" transform="translate(316.657504666553,477.9374323968998)"><text x="0" y="0" text-anchor="middle" dominant-baseline="text-before-edge" transform="translate(0,-5.6666669845581055)"><tspan x="0" y="0" dy="0" style="font-family: Arial, sans-serif; font-size: 10px; fill: black; font-weight: bold;">M</tspan></text></g><g id="M" transform="translate(402.68168242906916,472.5)"><text x="0" y="0" text-anchor="middle" dominant-baseline="text-before-edge" transform="translate(0,-5.6666669845581055)"><tspan x="0" y="0" dy="0" style="font-family: Arial, sans-serif; font-size: 10px; fill: black; font-weight: bold;">M</tspan></text></g><g id="M" transform="translate(296.62478678850164,469.7269719710218)"><text x="0" y="0" text-anchor="middle" dominant-baseline="text-before-edge" transform="translate(0,-5.6666669845581055)"><tspan x="0" y="0" dy="0" style="font-family: Arial, sans-serif; font-size: 10px; fill: black; font-weight: bold;">M</tspan></text></g><g id="M" transform="translate(339.5842740336797,469.5404371289192)"><text x="0" y="0" text-anchor="middle" dominant-baseline="text-before-edge" transform="translate(0,-5.6666669845581055)"><tspan x="0" y="0" dy="0" style="font-family: Arial, sans-serif; font-size: 10px; fill: black; font-weight: bold;">M</tspan></text></g></g></g></g></g></svg>